/* XPM */
static char * itautec_xpm[] = {
"48 48 18 1",
" 	c None",
".	c #004B85",
"+	c #5083AB",
"@	c #9FBBD1",
"#	c #BFD2E0",
"$	c #FFFFFF",
"%	c #608FB3",
"&	c #10568D",
"*	c #206294",
"=	c #8FB0C9",
"-	c #EFF4F7",
";	c #4078A4",
">	c #7FA5C2",
",	c #306D9C",
"'	c #DFE8F0",
")	c #709ABB",
"!	c #AFC7D9",
"~	c #CFDDE8",
"                                                ",
"                                                ",
"                                                ",
"                                                ",
"                                                ",
"                                                ",
"                                                ",
"         ..............................         ",
"        ................................        ",
"        ................................        ",
"        ................................        ",
"        ................................        ",
"        ................................        ",
"        ...........+@#$$$$#@%&..........        ",
"        ........*=-$$$$$$$$$$$@;........        ",
"        ......&>$$$$@+....+@$$$$#*......        ",
"        .....,'$$$-;........;-$$$-).....        ",
"        ....%$$$$-&..........&-$$$$@....        ",
"        ...@$$$$$;............;$$$$$!...        ",
"        ..>$$$$$@..............@$$$$$@..        ",
"        .+$$$$$$+..............+$$$$$$).        ",
"        &-$$$$$$................$$$$$$-*        ",
"        @$$$$$$$................$$$$$$$@        ",
"        @$$$$$$$................$$$$$$$@        ",
"        &-$$$$$$................$$$$$$-*        ",
"        .+$$$$$$,..............,$$$$$$).        ",
"        ..>$$$$$@..............@$$$$$@..        ",
"        ...=$$$$$*............*$$$$$!...        ",
"        ....%$$$$~&..........&~$$$$@....        ",
"        .....,'$$$~*........*~$$$-).....        ",
"        ......&>$$$->*....*>-$$$#*......        ",
"        ........*=-$$$'##'$$$$@;........        ",
"        ...........+@#$$$$#@%&..........        ",
"        ................................        ",
"        ................................        ",
"        ................................        ",
"        ................................        ",
"        ................................        ",
"         ..............................         ",
"                                                ",
"                                                ",
"                                                ",
"                                                ",
"                                                ",
"                                                ",
"                                                ",
"                                                ",
"                                                "};
